# xmcd
#
# Track frame offsets:
# 150
# 16339
# 42129
# 58208
# 77750
# 95417
# 117279
# 143604
# 160561
# 179410
#
# Disc length: 2653 seconds
#
#
# Revision: 4
# Processed by: cddbd v1.4PL0 Copyright (c) Steve Scherf et al.
# Submitted via: FreeRIP 2.52 
#
DISCID=770a5b0a
DTITLE=Spanish Harlem Orchestra - Un Gran Día En El Barrio
DYEAR=2002
DGENRE=Salsa
TTITLE0=Mama Guela
TTITLE1=Obsesion
TTITLE2=Tambori
TTITLE3=Aprende A Querer
TTITLE4=La Musica Es, Mi Vida
TTITLE5=La Banda
TTITLE6=Pa' Gozar
TTITLE7=Somos, Iguales,
TTITLE8=Vale Mas, Un Guaguanco
TTITLE9=Pueblo Latino
EXTD=YEAR: 2002
EXTT0=
EXTT1=
EXTT2=
EXTT3=
EXTT4=
EXTT5=
EXTT6=
EXTT7=
EXTT8=
EXTT9=
PLAYORDER=
